# xmcd CD database file
#
# Track frame offsets:
#	187
#	18545
#	39605
#	60935
#	81867
#	98357
#	115960
#	136000
#	154700
#	173865
#
# Disc length: 2575 seconds
#
# Revision: 0
# Processed by: cddbd v1.5PL3 Copyright (c) Steve Scherf et al.
# Submitted via: CDex 1.51
#
DISCID=6f0a0d0a
DTITLE=酒井美紀 - 雪解け
DYEAR=1994
DGENRE=Pop
TTITLE0=雪解け
TTITLE1=永遠に好きと言えない
TTITLE2=忘れないからね
TTITLE3=想い出だけじゃ悲しい
TTITLE4=青春の予感
TTITLE5=春一番のさくらの木
TTITLE6=あの時と同じ笑顔
TTITLE7=蒼い視線
TTITLE8=夢を映す瞳のままで
TTITLE9=どんなに遠くても…
EXTD=YEAR: 1994
EXTT0=
EXTT1=
EXTT2=
EXTT3=
EXTT4=
EXTT5=
EXTT6=
EXTT7=
EXTT8=
EXTT9=
PLAYORDER=
